:SAMPLES-PER-SECOND 30
:FULLY-SPECIFIED
:DEGREES
184
root  4.82317 17.8073 -37.3993 -113.526 5.64706 -165.215
RightUpLeg  -76.5158 9.41271 13.9639
RightLeg  116.39 21.7783 -11.2217
RightFoot  1.82108 1.16611 -8.92026
RightToes  -5.82073e-011 -3.18055e-015 -2.98177e-016
Spine  18.8602 3.35525 13.9941
Spine1  1.82584 8.29177 -13.6212
HEad  -24.8348 -4.36758 -22.4229
LeftShoulder1  -3.88251e-019 9.70628e-020 -3.87848e-018
LeftArm  -4.02533 -24.2525 -67.1008
LeftForeArm  5.53073 -10.7741 -7.36035
LeftHand  -10.7921 -10.3577 71.2855
RightShoulder  5.63165 10.2695 26.1072
RightArm  15.0961 -10.5926 55.6451
RightForeArm  9.14494 19.7755 -9.08139
RightHand  -9.91046 10.2919 -65.1154
LeftUpLeg  -33.4577 17.962 -6.56306
LeftLeg  71.5667 -8.65765 19.5676
LeftFoot  -0.00776018 2.40161 -20.7168
LeftToes  -3.44176e-011 4.05998e-011 -5.21293e-012
185
root  5.28447 17.8775 -37.9531 -112.642 5.83803 -164.347
RightUpLeg  -74.7891 11.1822 14.275
RightLeg  114.66 21.0995 -10.7204
RightFoot  1.45866 0.840101 -6.62281
RightToes  -5.82073e-011 -3.18055e-015 -2.98177e-016
Spine  17.4109 3.68676 12.4785
Spine1  1.94772 8.50954 -14.7286
HEad  -23.6932 -3.52559 -27.1813
LeftShoulder1  -3.88251e-019 9.70628e-020 -3.87848e-018
LeftArm  -4.8975 -23.4462 -65.9445
LeftForeArm  8.0226 -10.1286 -7.41343
LeftHand  -10.9877 -10.5193 71.6944
RightShoulder  5.72622 10.3367 26.4939
RightArm  16.8122 -12.7268 55.873
RightForeArm  8.43083 23.1283 -12.9027
RightHand  -10.1615 10.8256 -64.6604
LeftUpLeg  -34.0631 19.4982 -5.06467
LeftLeg  71.7999 -9.28264 17.2694
LeftFoot  2.44166 2.808 -20.3288
LeftToes  -3.44176e-011 4.05998e-011 -5.21293e-012
186
root  5.68572 18.16 -38.3306 -112.667 3.54106 -166.283
RightUpLeg  -72.8409 9.98875 15.5604
RightLeg  112.519 20.4701 -10.3708
RightFoot  1.21252 0.535838 -4.32877
RightToes  -5.82073e-011 -3.18055e-015 -2.98177e-016
Spine  17.8426 2.56148 11.8382
Spine1  0.435525 6.81041 -13.9783
HEad  -22.7207 -3.10391 -29.091
LeftShoulder1  -3.88251e-019 9.70628e-020 -3.87848e-018
LeftArm  -4.74954 -22.7399 -65.351
LeftForeArm  9.93126 -9.368 -7.77443
LeftHand  -11.2221 -10.7768 71.9474
RightShoulder  5.72105 10.3085 26.5201
RightArm  14.0725 -13.7607 55.1406
RightForeArm  11.6105 28.2664 -15.6847
RightHand  -10.5815 11.2102 -65.5707
LeftUpLeg  -35.8429 17.6072 -2.58269
LeftLeg  73.4656 -10.1169 15.7396
LeftFoot  3.44736 2.77946 -18.8709
LeftToes  -3.44176e-011 4.05998e-011 -5.21293e-012
187
root  6.04003 18.4779 -38.6575 -113.226 0.389816 -169.53
RightUpLeg  -70.5112 7.03992 16.9469
RightLeg  110.656 19.7198 -9.53682
RightFoot  0.303941 0.371082 -3.20562
RightToes  -5.82073e-011 -3.18055e-015 -2.98177e-016
Spine  19.8117 0.841464 11.7904
Spine1  -2.04239 4.63299 -13.2773
HEad  -21.8598 -3.50743 -28.5896
LeftShoulder1  -3.88251e-019 9.70628e-020 -3.87848e-018
LeftArm  -4.45814 -22.5469 -66.2829
LeftForeArm  12.2529 -8.14665 -7.75894
LeftHand  -11.5152 -11.0351 72.4699
RightShoulder  5.55376 10.0285 26.1368
RightArm  12.4829 -13.166 53.4105
RightForeArm  10.5651 33.8873 -19.0148
RightHand  -10.4923 11.1336 -65.3593
LeftUpLeg  -38.2943 14.8162 -0.161587
LeftLeg  76.2379 -10.8853 15.7256
LeftFoot  2.43339 2.29679 -16.6561
LeftToes  -3.44176e-011 4.05998e-011 -5.21293e-012
188
root  6.41486 18.7144 -38.9994 -114.084 -1.81805 -172.419
RightUpLeg  -67.8314 4.48646 17.6254
RightLeg  109.295 19.0018 -8.41163
RightFoot  -1.25069 0.241171 -2.33019
RightToes  -5.82073e-011 -3.18055e-015 -2.98177e-016
Spine  22.0237 -0.271567 10.9084
Spine1  -3.72249 3.14757 -12.3722
HEad  -21.3589 -4.7144 -27.3244
LeftShoulder1  -3.88251e-019 9.70628e-020 -3.87848e-018
LeftArm  -4.47113 -22.8282 -67.6671
LeftForeArm  14.4742 -7.05723 -7.65127
LeftHand  -11.8262 -11.2803 73.1019
RightShoulder  5.15608 9.63505 24.6577
RightArm  10.2291 -10.0591 52.4256
RightForeArm  6.96844 37.5358 -21.3536
RightHand  -9.83728 10.6599 -63.5075
LeftUpLeg  -40.7747 13.1745 1.33655
LeftLeg  80.0031 -11.7903 16.993
LeftFoot  0.0271865 1.65655 -14.3207
LeftToes  -3.44176e-011 4.05998e-011 -5.21293e-012
189
root  6.80848 18.8701 -39.3392 -115.146 -2.68095 -174.68
RightUpLeg  -65.3242 2.92621 17.5197
RightLeg  108.234 18.5736 -7.73833
RightFoot  -2.21444 0.118867 -1.2451
RightToes  -5.82073e-011 -3.18055e-015 -2.98177e-016
Spine  24.1244 -0.468908 8.9521
Spine1  -4.44173 2.50879 -11.1655
HEad  -21.1114 -6.42946 -26.2685
LeftShoulder1  -3.88251e-019 9.70628e-020 -3.87848e-018
LeftArm  -4.02386 -23.5111 -69.0068
LeftForeArm  15.934 -6.28158 -7.8647
LeftHand  -12.1337 -11.5549 73.5953
RightShoulder  4.63649 9.13547 22.5778
RightArm  7.03252 -4.64679 52.0284
RightForeArm  3.64767 38.3278 -21.7638
RightHand  -9.04988 9.9797 -61.4619
LeftUpLeg  -43.3025 12.5813 1.66553
LeftLeg  84.8367 -13.182 18.3446
LeftFoot  -2.9267 1.05653 -11.9121
LeftToes  -3.44176e-011 4.05998e-011 -5.21293e-012
190
root  7.15978 18.9825 -39.6797 -116.157 -2.91046 -176.794
RightUpLeg  -63.3269 1.53379 17.0847
RightLeg  107.211 18.4661 -7.82506
RightFoot  -2.17099 0.0682057 -0.716391
RightToes  -5.82073e-011 -3.18055e-015 -2.98177e-016
Spine  26.0525 -0.586274 7.19818
Spine1  -4.6896 2.04771 -10.6916
HEad  -21.2252 -7.89682 -25.2949
LeftShoulder1  -3.88251e-019 9.70628e-020 -3.87848e-018
LeftArm  -3.24912 -24.5692 -70.0806
LeftForeArm  17.081 -5.39062 -8.28689
LeftHand  -12.3882 -11.7585 74.0686
RightShoulder  4.04544 8.52296 20.1175
RightArm  2.53882 1.87989 52.2293
RightForeArm  2.64491 36.4388 -20.3533
RightHand  -8.44398 9.30968 -60.2062
LeftUpLeg  -46.2841 11.9188 1.0831
LeftLeg  90.5624 -15.014 18.8708
LeftFoot  -6.35187 0.523911 -9.12143
LeftToes  -3.44176e-011 4.05998e-011 -5.21293e-012
191
root  7.45391 19.0608 -40.0578 -116.993 -2.94852 -179.032
RightUpLeg  -61.5004 -0.207828 16.4718
RightLeg  106.105 18.5054 -8.36354
RightFoot  -2.12607 0.0999975 -1.07702
RightToes  -5.82073e-011 -3.18055e-015 -2.98177e-016
Spine  28.0564 -1.11397 6.20587
Spine1  -5.05053 1.40232 -11.4861
HEad  -21.6176 -8.9264 -24.1594
LeftShoulder1  -3.88251e-019 9.70628e-020 -3.87848e-018
LeftArm  -2.65358 -25.5663 -70.9486
LeftForeArm  18.2849 -4.63795 -8.445
LeftHand  -12.5104 -11.7973 74.4854
RightShoulder  3.52849 7.97831 17.8122
RightArm  -3.47478 9.06008 52.677
RightForeArm  4.03546 32.2613 -17.6762
RightHand  -7.87558 8.6625 -58.958
LeftUpLeg  -49.7117 10.4934 -0.180094
LeftLeg  96.6074 -16.9407 18.7427
LeftFoot  -10.5496 0.112864 -6.32332
LeftToes  -3.44176e-011 4.05998e-011 -5.21293e-012
